<svg fill="none" height="24" viewBox="0 0 23 24" width="23" xmlns="http://www.w3.org/2000/svg"><path d="m15.5934 11.4c0 .732-.5658 1.332-1.2823 1.332-.704 0-1.2823-.6-1.2823-1.332s.5657-1.332 1.2823-1.332c.7165 0 1.2823.6 1.2823 1.332zm-5.8709-1.332c-.71657 0-1.28229.6-1.28229 1.332s.57829 1.332 1.28229 1.332c.7166 0 1.2823-.6 1.2823-1.332.0126-.732-.5657-1.332-1.2823-1.332zm13.2754-7.596v21.528c-3.1671-2.6716-2.1542-1.7873-5.8331-5.052l.6663 2.22h-14.25603c-1.42057 0-2.577145-1.104-2.577145-2.472v-16.224c0-1.368 1.156575-2.472 2.577145-2.472h16.84573c1.4206 0 2.5771 1.104 2.5771 2.472zm-3.5828 11.376c0-3.864-1.8103-6.996-1.8103-6.996-1.8103-1.296-3.5326-1.26-3.5326-1.26l-.176.192c2.1372.624 3.1303 1.524 3.1303 1.524-2.9863-1.5623-6.4941-1.56258-9.39086-.348-.46514.204-.74172.348-.74172.348s1.04343-.948 3.30628-1.572l-.1257-.144s-1.72229-.036-3.53258 1.26c0 0-1.81028 3.132-1.81028 6.996 0 0 1.056 1.74 3.83428 1.824 0 0 .46515-.54.84229-.996-1.59657-.456-2.2-1.416-2.2-1.416.18494.1236.48989.2837.51543.3 2.12192 1.1343 5.13606 1.5059 7.84456.42.44-.156.9303-.384 1.4457-.708 0 0-.6285.984-2.2754 1.428.3771.456.8297.972.8297.972 2.7783-.084 3.8469-1.824 3.8469-1.824z" fill="#7289da"/></svg>