<svg fill="none" height="24" viewBox="0 0 23 24" width="23" xmlns="http://www.w3.org/2000/svg"><path d="m11.6542.375c-5.87589 0-10.656245 5.21494-10.656245 11.625 0 6.4101 4.780355 11.625 10.656245 11.625 5.8759 0 10.6563-5.2149 10.6563-11.625 0-6.41006-4.7804-11.625-10.6563-11.625zm7.0456 5.36091c1.2677 1.68965 2.0354 3.84173 2.0554 6.18539-.3001-.0692-3.3094-.7351-6.338-.3196-.2471-.6582-.4804-1.2372-.7999-1.95065 3.3653-1.49892 4.8906-3.63197 5.0825-3.91514zm-1.0119-1.14825c-.1637.25439-1.5338 2.2634-4.7704 3.58682-1.4915-2.9895-3.14468-5.44537-3.39626-5.81287 2.88646-.75905 5.92826.05953 8.16666 2.22605zm-9.90342-1.5586c.23998.35902 1.86648 2.81794 3.37462 5.74261-4.25763 1.23343-8.00764 1.21566-8.41472 1.2098.59022-3.08124 2.49365-5.64211 5.0401-6.95241zm-5.23235 8.98604c0-.1015.00185-.2026.00465-.3034.39823.0089 4.80906.0709 9.35452-1.4131.2606.5563.5095 1.121.738 1.6851-3.29139 1.0114-6.2818 3.9154-7.75722 6.6706-1.45376-1.7603-2.33995-4.0888-2.33995-6.6392zm3.51515 7.8335c.95077-2.1203 3.53109-4.8573 7.20062-6.223 1.2779 3.6227 1.8064 6.6588 1.9418 7.5299-2.9267 1.36-6.446.9869-9.14242-1.3069zm10.67262.3979c-.0933-.604-.5778-3.5108-1.7683-7.0797 2.8523-.4981 5.3582.3173 5.6696.4245-.4057 2.7628-1.8594 5.1489-3.9013 6.6552z" fill="#ea4c89"/></svg>