<svg fill="none" height="24" viewBox="0 0 23 24" width="23" xmlns="http://www.w3.org/2000/svg"><path d="m7.66892 18.9182c0 .0937-.10201.1687-.23064.1687-.14637.0141-.24839-.0609-.24839-.1687 0-.0938.10202-.1688.23065-.1688.13306-.014.24838.061.24838.1688zm-1.37943-.211c-.03105.0938.05766.2016.19072.2297.11533.0469.24839 0 .275-.0937.02662-.0938-.05766-.2016-.19072-.2438-.11533-.0328-.24395.0141-.275.1078zm1.96048-.0797c-.12863.0329-.21734.1219-.20403.2297.01331.0938.12863.1547.26169.1219.12863-.0328.21734-.1219.20403-.2156-.0133-.0891-.13306-.15-.26169-.136zm2.91853-17.962461c-6.152 0-10.858045 4.935941-10.858045 11.437461 0 5.1985 3.095965 9.6469 7.518145 11.2125.56774.1079.76734-.2625.76734-.5671 0-.2907-.01331-1.8938-.01331-2.8782 0 0-3.10484.7032-3.75685-1.3968 0 0-.50565-1.3641-1.23307-1.7157 0 0-1.01572-.7359.07097-.7218 0 0 1.10444.0937 1.7121 1.2093.97137 1.8094 2.59919 1.2891 3.23347.9797.10201-.75.39032-1.2703.70967-1.5797-2.47943-.2906-4.98105-.6703-4.98105-5.1797 0-1.289.3371-1.9359 1.04678-2.7609-.11532-.30469-.49234-1.56094.11532-3.18281.92702-.30469 3.06049 1.26562 3.06049 1.26562.88709-.2625 1.84074-.39843 2.78544-.39843.9448 0 1.8984.13593 2.7855.39843 0 0 2.1335-1.575 3.0605-1.26562.6077 1.62656.2307 2.87812.1153 3.18281.7097.82969 1.1444 1.4766 1.1444 2.7609 0 4.5235-2.6125 4.8844-5.092 5.1797.4081.3703.7541 1.0735.7541 2.175 0 1.5797-.0133 3.5344-.0133 3.9188 0 .3047.204.675.7673.5672 4.4355-1.5563 7.4428-6.0047 7.4428-11.2032 0-6.50152-4.99-11.437461-11.142-11.437461zm-6.54675 16.167161c-.05767.0469-.04436.1547.03104.2438.07097.075.17299.1078.23065.0469.05766-.0469.04435-.1547-.03105-.2438-.07097-.075-.17298-.1078-.23064-.0469zm-.47904-.3797c-.03104.061.01331.136.10202.1829.07097.0468.15968.0328.19073-.0329.03104-.0609-.01331-.1359-.10202-.1828-.08871-.0281-.15968-.014-.19073.0328zm1.4371 1.6688c-.07097.0609-.04435.2016.05766.2906.10202.1078.23065.1219.28831.0469.05766-.0609.03105-.2016-.05766-.2906-.09758-.1078-.23065-.1219-.28831-.0469zm-.50565-.6891c-.07096.0469-.07096.1688 0 .2766.07097.1078.19073.1547.24839.1078.07097-.0609.07097-.1828 0-.2906-.06209-.1078-.17742-.1547-.24839-.0938z" fill="#2b3137"/></svg>