<svg fill="none" height="22" viewBox="0 0 23 22" width="23" xmlns="http://www.w3.org/2000/svg"><path d="m5.23492 21.4995h-4.561072v-14.02028h4.561072zm-2.28299-15.93278c-1.45848 0-2.641475-1.15313-2.641475-2.54531 0-.66872.278298-1.31005.773665-1.78291.49538-.472853 1.16725-.7385 1.86781-.7385s1.37243.265647 1.8678.7385c.49537.47286.77367 1.11419.77367 1.78291 0 1.39218-1.18348 2.54531-2.64147 2.54531zm19.35357 15.93278h-4.5512v-6.825c0-1.6265-.0344-3.7125-2.3714-3.7125-2.3714 0-2.7348 1.7672-2.7348 3.5953v6.9422h-4.55613v-14.02028h4.37443v1.9125h.0639c.6089-1.10156 2.0964-2.26406 4.3155-2.26406 4.6161 0 5.4647 2.90154 5.4647 6.67034v7.7015z" fill="#0073b1"/></svg>